<svg width="688.333" height="101.251" viewBox="0 0 688.333 101.251" xmlns="http://www.w3.org/2000/svg">
	<g id="svgGroup" stroke-linecap="round" fill-rule="evenodd" font-size="9pt" stroke="#000" stroke-width="0.25mm" fill="none" style="stroke:#000;stroke-width:0.25mm;fill:none">
		<path d="M 30.729 100 L 0 100 L 0 6.25 L 30.729 6.25 A 65.365 65.365 0 0 1 41.572 7.106 A 47.195 47.195 0 0 1 52.865 10.417 A 48.261 48.261 0 0 1 62.899 16.317 A 41.066 41.066 0 0 1 68.438 21.458 Q 74.583 28.333 77.604 36.615 A 48.901 48.901 0 0 1 80.5 49.78 A 45.03 45.03 0 0 1 80.625 53.125 A 47.395 47.395 0 0 1 78.144 68.083 A 54.182 54.182 0 0 1 77.604 69.635 A 46.534 46.534 0 0 1 68.437 84.792 A 42.928 42.928 0 0 1 57.373 93.581 A 52.271 52.271 0 0 1 52.865 95.833 A 47.195 47.195 0 0 1 41.572 99.144 A 65.365 65.365 0 0 1 30.729 100 Z M 11.875 16.875 L 11.875 89.375 L 29.479 89.375 Q 40.313 89.375 47.708 85.99 Q 55.104 82.604 59.688 77.135 A 35.59 35.59 0 0 0 65.291 68.05 A 32.964 32.964 0 0 0 66.302 65.312 A 43.674 43.674 0 0 0 67.972 58.14 A 35.749 35.749 0 0 0 68.333 53.125 A 37.304 37.304 0 0 0 67.459 45.244 A 46.086 46.086 0 0 0 66.302 40.938 A 34.452 34.452 0 0 0 60.524 30.148 A 39.593 39.593 0 0 0 59.688 29.115 A 31.577 31.577 0 0 0 51.852 22.454 A 39.523 39.523 0 0 0 47.708 20.26 A 34.786 34.786 0 0 0 40.019 17.83 Q 36.431 17.114 32.296 16.935 A 65.086 65.086 0 0 0 29.479 16.875 L 11.875 16.875 Z" id="0" vector-effect="non-scaling-stroke"/>
		<path d="M 145.625 45.729 L 145.625 37.5 L 156.042 37.5 L 156.042 100 L 145.625 100 L 145.625 91.771 Q 141.458 95.938 135.781 98.385 A 30.319 30.319 0 0 1 123.646 100.833 A 29.417 29.417 0 0 1 108.021 96.51 A 32.362 32.362 0 0 1 96.719 84.896 A 31.658 31.658 0 0 1 92.5 68.75 A 31.658 31.658 0 0 1 96.719 52.604 A 32.362 32.362 0 0 1 108.021 40.99 Q 115.104 36.667 123.646 36.667 Q 130.104 36.667 135.781 39.063 Q 141.458 41.458 145.625 45.729 Z M 125.104 90.625 A 20.224 20.224 0 0 0 135.885 87.656 A 22.162 22.162 0 0 0 143.594 79.74 A 21.457 21.457 0 0 0 146.456 69.127 A 25.274 25.274 0 0 0 146.458 68.75 A 21.962 21.962 0 0 0 144.813 60.221 A 21.087 21.087 0 0 0 143.594 57.76 A 22.162 22.162 0 0 0 135.885 49.844 A 20.224 20.224 0 0 0 125.104 46.875 A 20.224 20.224 0 0 0 114.323 49.844 A 22.162 22.162 0 0 0 106.615 57.76 A 21.457 21.457 0 0 0 103.753 68.373 A 25.274 25.274 0 0 0 103.75 68.75 A 21.962 21.962 0 0 0 105.395 77.279 A 21.087 21.087 0 0 0 106.615 79.74 A 22.162 22.162 0 0 0 114.323 87.656 A 20.224 20.224 0 0 0 125.104 90.625 Z" id="1" vector-effect="non-scaling-stroke"/>
		<path d="M 187.292 100 L 176.042 100 L 176.042 37.5 L 186.458 37.5 L 186.458 47.604 A 23.299 23.299 0 0 1 195.365 39.167 A 24.738 24.738 0 0 1 207.187 36.25 Q 213.854 36.25 219.531 39.531 Q 225.208 42.813 228.75 49.01 A 25.964 25.964 0 0 1 231.614 56.824 Q 232.27 60.084 232.291 63.821 A 44 44 0 0 1 232.292 64.063 L 232.292 100 L 221.042 100 L 221.042 65.625 A 20.668 20.668 0 0 0 216.615 52.552 A 14.415 14.415 0 0 0 206.175 46.969 A 20.834 20.834 0 0 0 204.167 46.875 A 16.71 16.71 0 0 0 192.955 51.163 A 21.6 21.6 0 0 0 192.448 51.615 Q 187.292 56.354 187.292 65.313 L 187.292 100 Z" id="2" vector-effect="non-scaling-stroke"/>
		<path d="M 262.292 100 L 251.042 100 L 251.042 37.5 L 262.292 37.5 L 262.292 100 Z M 251.423 24.13 A 7.226 7.226 0 0 0 256.667 26.25 A 9.384 9.384 0 0 0 256.867 26.248 A 7.148 7.148 0 0 0 262.031 24.063 A 7.513 7.513 0 0 0 263.453 22.05 A 7.553 7.553 0 0 0 264.167 18.75 A 9.503 9.503 0 0 0 264.16 18.4 A 7.206 7.206 0 0 0 262.031 13.385 A 7.074 7.074 0 0 0 259.443 11.715 A 8.008 8.008 0 0 0 256.667 11.25 A 7.323 7.323 0 0 0 251.354 13.385 A 7.065 7.065 0 0 0 249.663 15.921 A 7.813 7.813 0 0 0 249.167 18.75 A 8.867 8.867 0 0 0 249.167 18.847 A 7.222 7.222 0 0 0 251.354 24.062 A 8.606 8.606 0 0 0 251.423 24.13 Z" id="3" vector-effect="non-scaling-stroke"/>
		<path d="M 341.25 67.292 L 341.25 71.875 L 300.417 71.875 A 74.735 74.735 0 0 1 294.896 71.667 A 70.591 70.591 0 0 1 289.375 71.042 A 22.028 22.028 0 0 0 296.927 85 Q 303.333 90.625 312.188 90.625 A 23.198 23.198 0 0 0 323.229 87.917 A 23.309 23.309 0 0 0 330.217 82.347 A 22.338 22.338 0 0 0 331.458 80.729 L 334.583 93.542 A 33.736 33.736 0 0 1 324.862 99.025 A 38.115 38.115 0 0 1 324.323 99.219 Q 318.542 101.25 312.083 101.25 A 37.557 37.557 0 0 1 301.306 99.748 A 32.863 32.863 0 0 1 294.531 96.875 A 32.168 32.168 0 0 1 282.344 84.948 A 32.524 32.524 0 0 1 277.921 68.703 A 38.497 38.497 0 0 1 277.917 68.125 A 31.582 31.582 0 0 1 280.523 55.276 A 30.65 30.65 0 0 1 282.187 52.031 Q 286.458 44.792 293.698 40.521 A 30.888 30.888 0 0 1 309.687 36.25 A 31.307 31.307 0 0 1 325.521 40.365 A 31.631 31.631 0 0 1 336.979 51.458 A 29.246 29.246 0 0 1 341.199 65.377 A 35.495 35.495 0 0 1 341.25 67.292 Z M 300.417 62.5 L 321.146 62.5 A 65.09 65.09 0 0 1 325.677 62.656 A 216.438 216.438 0 0 1 330.208 63.021 A 20.174 20.174 0 0 0 322.917 50.99 Q 317.083 46.25 309.688 46.25 Q 302.083 46.25 296.354 51.302 A 23.056 23.056 0 0 0 290.724 58.609 A 22.016 22.016 0 0 0 289.063 63.438 Q 294.688 62.5 300.417 62.5 Z" id="4" vector-effect="non-scaling-stroke"/>
		<path d="M 367.5 100 L 356.25 100 L 356.25 0 L 367.5 0 L 367.5 100 Z" id="5" vector-effect="non-scaling-stroke"/>
		<path d="M 466.25 100 L 421.875 100 L 421.875 6.25 L 433.75 6.25 L 433.75 89.375 L 466.25 89.375 L 466.25 100 Z" id="7" vector-effect="non-scaling-stroke"/>
		<path d="M 492.5 100 L 481.25 100 L 481.25 37.5 L 492.5 37.5 L 492.5 100 Z M 481.631 24.13 A 7.226 7.226 0 0 0 486.875 26.25 A 9.384 9.384 0 0 0 487.076 26.248 A 7.148 7.148 0 0 0 492.24 24.063 A 7.513 7.513 0 0 0 493.661 22.05 A 7.553 7.553 0 0 0 494.375 18.75 A 9.503 9.503 0 0 0 494.369 18.4 A 7.206 7.206 0 0 0 492.24 13.385 A 7.074 7.074 0 0 0 489.651 11.715 A 8.008 8.008 0 0 0 486.875 11.25 A 7.323 7.323 0 0 0 481.562 13.385 A 7.065 7.065 0 0 0 479.872 15.921 A 7.813 7.813 0 0 0 479.375 18.75 A 8.867 8.867 0 0 0 479.376 18.847 A 7.222 7.222 0 0 0 481.563 24.062 A 8.606 8.606 0 0 0 481.631 24.13 Z" id="8" vector-effect="non-scaling-stroke"/>
		<path d="M 523.75 100 L 512.5 100 L 512.5 37.5 L 522.917 37.5 L 522.917 46.458 A 22.188 22.188 0 0 1 529.687 39.861 A 21.649 21.649 0 0 1 531.615 38.802 Q 536.875 36.25 542.708 36.25 A 23.511 23.511 0 0 1 554.375 39.219 Q 559.688 42.188 562.917 47.5 A 23.174 23.174 0 0 1 572.344 39.062 Q 578.125 36.25 584.583 36.25 A 25.858 25.858 0 0 1 597.552 39.583 A 24.909 24.909 0 0 1 606.927 48.906 A 25.337 25.337 0 0 1 610.004 57.687 A 33.272 33.272 0 0 1 610.417 63.021 L 610.417 100 L 599.167 100 L 599.167 64.375 A 23.994 23.994 0 0 0 598.658 59.269 Q 597.961 56.072 596.312 53.685 A 13.383 13.383 0 0 0 594.323 51.406 Q 589.479 46.979 583.125 46.979 A 17.53 17.53 0 0 0 575.469 48.75 Q 571.771 50.521 569.427 54.271 Q 567.472 57.398 567.148 62.12 A 28.346 28.346 0 0 0 567.083 64.063 L 567.083 100 L 555.833 100 L 555.833 64.375 A 24.778 24.778 0 0 0 555.504 60.215 Q 555.109 57.899 554.241 56.003 A 13.713 13.713 0 0 0 553.49 54.583 A 16.142 16.142 0 0 0 550.13 50.602 A 14.564 14.564 0 0 0 547.448 48.802 A 16.499 16.499 0 0 0 540.777 46.905 A 16.088 16.088 0 0 0 539.792 46.875 A 17.188 17.188 0 0 0 532.702 48.431 A 19.915 19.915 0 0 0 532.24 48.646 A 14.452 14.452 0 0 0 526.765 53.26 A 17.604 17.604 0 0 0 526.146 54.167 A 14.021 14.021 0 0 0 524.436 58.171 Q 523.964 59.96 523.817 62.074 A 28.596 28.596 0 0 0 523.75 64.063 L 523.75 100 Z" id="9" vector-effect="non-scaling-stroke"/>
		<path d="M 677.917 45.729 L 677.917 37.5 L 688.333 37.5 L 688.333 100 L 677.917 100 L 677.917 91.771 Q 673.75 95.938 668.073 98.385 A 30.319 30.319 0 0 1 655.937 100.833 A 29.417 29.417 0 0 1 640.313 96.51 A 32.362 32.362 0 0 1 629.01 84.896 A 31.658 31.658 0 0 1 624.792 68.75 A 31.658 31.658 0 0 1 629.01 52.604 A 32.362 32.362 0 0 1 640.313 40.99 Q 647.396 36.667 655.938 36.667 Q 662.396 36.667 668.073 39.063 Q 673.75 41.458 677.917 45.729 Z M 657.396 90.625 A 20.224 20.224 0 0 0 668.177 87.656 A 22.162 22.162 0 0 0 675.885 79.74 A 21.457 21.457 0 0 0 678.747 69.127 A 25.274 25.274 0 0 0 678.75 68.75 A 21.962 21.962 0 0 0 677.105 60.221 A 21.087 21.087 0 0 0 675.885 57.76 A 22.162 22.162 0 0 0 668.177 49.844 A 20.224 20.224 0 0 0 657.396 46.875 A 20.224 20.224 0 0 0 646.615 49.844 A 22.162 22.162 0 0 0 638.906 57.76 A 21.457 21.457 0 0 0 636.044 68.373 A 25.274 25.274 0 0 0 636.042 68.75 A 21.962 21.962 0 0 0 637.687 77.279 A 21.087 21.087 0 0 0 638.906 79.74 A 22.162 22.162 0 0 0 646.615 87.656 A 20.224 20.224 0 0 0 657.396 90.625 Z" id="10" vector-effect="non-scaling-stroke"/>
	</g>
</svg>
